<svg width="20" height="19" viewBox="0 0 20 19" fill="none" xmlns="http://www.w3.org/2000/svg">
<path fill-rule="evenodd" clip-rule="evenodd" d="M18.6076 0C19.3766 0 20 0.623815 20 1.39333V4.7484C20 5.51792 19.3766 6.14173 18.6076 6.14173H15.2558L15.2558 17.6067C15.2558 18.3762 14.6324 19 13.8634 19H6.13664C5.36764 19 4.74423 18.3762 4.74423 17.6067L4.74423 6.14173H1.3924C0.6234 6.14173 0 5.51792 0 4.7484V1.39333C0 0.623817 0.6234 0 1.3924 0L18.6076 0ZM4.74423 5.38173L4.74424 3.42134H2.40507C2.19534 3.42134 2.02532 3.25121 2.02532 3.04134C2.02532 2.83148 2.19534 2.66134 2.40507 2.66134L17.5949 2.66134C17.8047 2.66134 17.9747 2.83148 17.9747 3.04134C17.9747 3.25121 17.8047 3.42134 17.5949 3.42134L15.2558 3.42134V5.38173H18.6076C18.9571 5.38173 19.2405 5.09818 19.2405 4.7484V1.39333C19.2405 1.04355 18.9571 0.76 18.6076 0.76L1.3924 0.76C1.04286 0.76 0.759493 1.04355 0.759493 1.39333V4.7484C0.759493 5.09818 1.04286 5.38173 1.3924 5.38173H4.74423ZM14.4963 3.42134L5.50373 3.42134L5.50373 13.3658H14.4963L14.4963 3.42134ZM14.4963 14.1258H5.50373L5.50373 17.6067C5.50373 17.9564 5.78709 18.24 6.13664 18.24H13.8634C14.2129 18.24 14.4963 17.9564 14.4963 17.6067V14.1258ZM11.8292 5.67599C11.8043 5.6531 11.7643 5.63423 11.7132 5.63423H9.72083V7.77889H11.7132C11.7643 7.77889 11.8043 7.76002 11.8292 7.73714C11.8536 7.71476 11.8606 7.69252 11.8606 7.67501V5.73811C11.8606 5.72061 11.8536 5.69837 11.8292 5.67599ZM9.72083 8.53889H11.7132C12.1825 8.53889 12.6201 8.18232 12.6201 7.67501V5.73811C12.6201 5.2308 12.1825 4.87423 11.7132 4.87423H7.75967C7.54994 4.87423 7.37992 5.04437 7.37992 5.25423C7.37992 5.4641 7.54994 5.63423 7.75967 5.63423H8.96133V7.77889H7.75967C7.54994 7.77889 7.37992 7.94902 7.37992 8.15889C7.37992 8.36876 7.54994 8.53889 7.75967 8.53889H8.96133V9.59207H7.75967C7.54994 9.59207 7.37992 9.7622 7.37992 9.97207C7.37992 10.1819 7.54994 10.3521 7.75967 10.3521H8.96133V11.3027C8.96133 11.5126 9.13135 11.6827 9.34108 11.6827C9.55081 11.6827 9.72083 11.5126 9.72083 11.3027V10.3521H10.9225C11.1322 10.3521 11.3022 10.1819 11.3022 9.97207C11.3022 9.7622 11.1322 9.59207 10.9225 9.59207H9.72083V8.53889ZM7.4961 15.0593C7.70583 15.0593 7.87584 15.2295 7.87584 15.4393V16.9264C7.87584 17.1363 7.70583 17.3064 7.4961 17.3064C7.28637 17.3064 7.11635 17.1363 7.11635 16.9264V15.4393C7.11635 15.2295 7.28637 15.0593 7.4961 15.0593Z" fill="#2F7DC8"/>
</svg>
