<svg width="10" height="20" viewBox="0 0 10 20" fill="none" xmlns="http://www.w3.org/2000/svg">
<path fill-rule="evenodd" clip-rule="evenodd" d="M4.34708 0.359766C4.44076 0.14149 4.65545 0 4.89298 0H8.9963C9.43837 0 9.72556 0.465623 9.52715 0.860666L6.31475 7.25673H9.22807C9.70017 7.25673 9.98363 7.78083 9.72523 8.17593L2.17024 19.7274C1.79143 20.3066 0.896199 19.88 1.10736 19.221L3.67619 11.2036H0.594687C0.168084 11.2036 -0.119454 10.7673 0.0487899 10.3752L4.34708 0.359766ZM4.97127 0.712855L0.774964 10.4907H3.83901C4.24157 10.4907 4.52756 10.8827 4.40473 11.266L2.05399 18.6028L9.0084 7.96958H6.12212C5.68005 7.96958 5.39286 7.50396 5.59127 7.10892L8.80368 0.712855H4.97127Z" fill="#2F7DC8"/>
</svg>
