<svg width="13" height="20" viewBox="0 0 13 20" fill="none" xmlns="http://www.w3.org/2000/svg">
<path fill-rule="evenodd" clip-rule="evenodd" d="M3.2586 0.768222L2.49288 1.51518H10.3344L9.37727 0.768222H3.2586ZM11.5831 1.51518L9.75961 0.0921362C9.6831 0.0324271 9.58883 0 9.49179 0H3.12313C3.00954 0 2.90045 0.0443954 2.81915 0.123709L1.39272 1.51518H0.435326C0.194902 1.51518 0 1.71008 0 1.9505V3.31957C0 3.55999 0.194903 3.75489 0.435326 3.75489H1.20161L2.71547 18.8138C2.73783 19.0362 2.92505 19.2056 3.14861 19.2056H9.85139C10.0749 19.2056 10.2622 19.0362 10.2845 18.8138L11.7984 3.75489H12.5647C12.8051 3.75489 13 3.55998 13 3.31957V1.9505C13 1.71009 12.8051 1.51518 12.5647 1.51518H11.5831ZM11.0263 3.75489H1.9737L2.28479 6.84934H10.7152L11.0263 3.75489ZM10.638 7.61756H2.36201L3.06141 14.5747H9.93859L10.638 7.61756ZM0.768222 2.2834V2.98667H12.2318V2.2834H0.768222Z" fill="#E77011"/>
</svg>
