<svg width="16" height="20" viewBox="0 0 16 20" fill="none" xmlns="http://www.w3.org/2000/svg">
<path fill-rule="evenodd" clip-rule="evenodd" d="M11.4233 0.735185C11.3927 0.713767 11.3505 0.721201 11.3291 0.75179L9.29107 3.66241C8.35797 4.99501 8.0698 6.42036 8.34843 7.33247C8.41979 7.5661 8.40288 7.84965 8.23323 8.08093L7.6833 8.83064L8.39502 9.801L9.12623 8.70621C9.28554 8.46769 9.54621 8.35482 9.79015 8.34198C10.7426 8.29183 11.9834 7.53355 12.9165 6.20095L14.9545 3.29033C14.9759 3.25974 14.9685 3.21758 14.9379 3.19616L14.7622 3.07311C14.7316 3.05169 14.6894 3.05913 14.668 3.08971L12.3603 6.38548C12.1099 6.7431 11.617 6.83002 11.2593 6.5796L11.1715 6.51808C10.8138 6.26767 10.7269 5.77475 10.9773 5.41712L13.2851 2.12136C13.3065 2.09077 13.299 2.04862 13.2685 2.0272L13.0927 1.90415C13.0621 1.88273 13.02 1.89016 12.9986 1.92075L10.6908 5.21651C10.4404 5.57414 9.94752 5.66105 9.58989 5.41064L9.50202 5.34912C9.14439 5.0987 9.05748 4.60579 9.30789 4.24816L11.6156 0.9524C11.637 0.921813 11.6296 0.879653 11.599 0.858234L11.4233 0.735185ZM8.85 10.4213L9.72737 9.10771C9.73731 9.09282 9.7678 9.06704 9.82816 9.06387C11.0815 8.99788 12.5013 8.0542 13.5086 6.61558L15.5467 3.70496C15.7971 3.34733 15.7102 2.85442 15.3525 2.604L15.1768 2.48095C14.8192 2.23054 14.3263 2.31745 14.0759 2.67508L11.7681 5.97084C11.7467 6.00143 11.7046 6.00887 11.674 5.98745L11.5861 5.92592C11.5555 5.9045 11.5481 5.86234 11.5695 5.83176L13.8772 2.536C14.1276 2.17837 14.0407 1.68545 13.6831 1.43504L13.5074 1.31199C13.1497 1.06158 12.6568 1.14849 12.4064 1.50612L10.0987 4.80188C10.0773 4.83247 10.0351 4.8399 10.0045 4.81848L9.91665 4.75696C9.88607 4.73554 9.87863 4.69338 9.90005 4.66279L12.2078 1.36703C12.4582 1.0094 12.3713 0.51649 12.0136 0.266077L11.8379 0.143029C11.4803 -0.107385 10.9874 -0.0204708 10.737 0.337157L8.69891 3.24778C7.69158 4.6864 7.29041 6.34335 7.65707 7.54366C7.67473 7.60147 7.66093 7.63893 7.65034 7.65336L7.23507 8.2195L6.95526 7.83801C6.94471 7.82363 6.93081 7.78609 6.94846 7.72785C7.30799 6.54134 6.90974 4.90518 5.91489 3.48439C5.21991 2.49186 4.33752 1.74931 3.45646 1.36106C2.5825 0.975931 1.64677 0.917853 0.929099 1.42037C0.211429 1.92289 -0.0540354 2.82205 0.00895349 3.77502C0.0724546 4.73574 0.468421 5.81888 1.1634 6.81141C2.15825 8.23221 3.55952 9.16604 4.79745 9.234C4.85821 9.23734 4.88873 9.26324 4.89864 9.27807L5.64213 10.3911L0.898889 16.8576L0.898602 16.8579C0.870568 16.8963 0.845706 16.9368 0.82426 16.9792L0.22381 18.1651C0.0268174 18.5542 0.146677 19.0284 0.503432 19.2782L1.24801 19.7995C1.60476 20.0493 2.09137 19.9998 2.3896 19.6816L3.29863 18.7117C3.33109 18.6771 3.36069 18.6399 3.38712 18.6004L7.25622 12.8075L11.1628 18.656C11.189 18.6951 11.2184 18.732 11.2506 18.7664L12.1486 19.725C12.4443 20.0407 12.9271 20.0909 13.2815 19.8428L14.0158 19.3286C14.3701 19.0805 14.4881 18.6096 14.2926 18.2238L13.6989 17.0521C13.6776 17.0101 13.6529 16.9699 13.6251 16.9318L8.85 10.4213ZM6.82155 12.1568L6.06942 11.0308L1.48207 17.2847C1.482 17.2848 1.48213 17.2846 1.48207 17.2847C1.47729 17.2913 1.47286 17.2985 1.46919 17.3057L0.868745 18.4916C0.83471 18.5589 0.855046 18.6419 0.918065 18.686L1.66264 19.2074C1.72566 19.2515 1.81064 19.2422 1.86217 19.1872L2.7712 18.2174C2.77678 18.2114 2.78186 18.2051 2.7864 18.1983C2.78636 18.1984 2.78644 18.1982 2.7864 18.1983L6.82155 12.1568ZM3.16495 2.02257C2.4166 1.69279 1.77463 1.71081 1.34373 2.01253C0.912834 2.31425 0.676334 2.91134 0.73027 3.72735C0.783694 4.53561 1.12354 5.49417 1.75555 6.39678C2.67643 7.71193 3.89935 8.46072 4.83708 8.5122C5.08031 8.52555 5.34057 8.63822 5.49976 8.87654L11.7634 18.2536C11.7634 18.2536 11.7634 18.2536 11.7634 18.2536C11.7678 18.2602 11.7727 18.2665 11.7782 18.2722L12.6761 19.2308C12.7259 19.2839 12.8072 19.2924 12.8668 19.2506L13.6011 18.7365C13.6608 18.6947 13.6806 18.6154 13.6477 18.5505L13.0541 17.3788C13.0505 17.3717 13.0463 17.365 13.0417 17.3586L6.37235 8.26555C6.20285 8.03444 6.18599 7.75135 6.25663 7.51822C6.52898 6.61943 6.24361 5.21417 5.32273 3.89902C4.69072 2.99641 3.9062 2.34921 3.16495 2.02257Z" fill="#E77011"/>
</svg>
