<svg width="8" height="20" viewBox="0 0 8 20" fill="none" xmlns="http://www.w3.org/2000/svg">
<path fill-rule="evenodd" clip-rule="evenodd" d="M2.33766 5.06C1.42068 5.06 0.727273 5.61102 0.727273 6.40976V11.8555H1.66234V7.69815H2.38961V19.2638H3.63636V12.2236H4.36364V19.2638H5.61039V7.69815H6.33766V11.8555H7.27273V6.40976C7.27273 5.611 6.5795 5.06 5.66234 5.06H2.33766ZM6.33766 12.5917H8V6.40976C8 5.0612 6.82331 4.3238 5.66234 4.3238H2.33766C1.17692 4.3238 0 5.06118 0 6.40976V12.5917H1.66234V20H6.33766V12.5917Z" fill="#05A43D"/>
<path fill-rule="evenodd" clip-rule="evenodd" d="M4.04027 3.12899C4.69405 3.12899 5.2233 2.59293 5.2233 1.93259C5.2233 1.27225 4.69405 0.736196 4.04027 0.736196C3.3865 0.736196 2.85724 1.27225 2.85724 1.93259C2.85724 2.59293 3.3865 3.12899 4.04027 3.12899ZM4.04027 3.86518C5.0953 3.86518 5.95058 2.99993 5.95058 1.93259C5.95058 0.86525 5.0953 0 4.04027 0C2.98524 0 2.12997 0.86525 2.12997 1.93259C2.12997 2.99993 2.98524 3.86518 4.04027 3.86518Z" fill="#05A43D"/>
</svg>
