<svg width="20" height="17" viewBox="0 0 20 17" fill="none" xmlns="http://www.w3.org/2000/svg">
<path fill-rule="evenodd" clip-rule="evenodd" d="M3.13176 0.715673C2.53888 0.715673 2.05825 1.1963 2.05825 1.78918V13.4258H5.48405C5.8839 13.4258 6.20805 13.7499 6.20805 14.1498C6.20805 14.1516 6.20834 14.1524 6.20855 14.1529C6.20886 14.1537 6.20947 14.1547 6.21048 14.1557C6.21091 14.1561 6.21133 14.1565 6.21173 14.1567C6.21229 14.1571 6.21281 14.1574 6.21324 14.1576C6.21374 14.1578 6.21456 14.1581 6.21637 14.1581H13.7836C13.7848 14.1581 13.7855 14.158 13.786 14.1579C13.7864 14.1578 13.7866 14.1577 13.7868 14.1576C13.7873 14.1574 13.788 14.157 13.7887 14.1564C13.789 14.1562 13.7892 14.156 13.7895 14.1557C13.7901 14.1551 13.7906 14.1545 13.7909 14.1539C13.7911 14.1536 13.7913 14.1532 13.7914 14.1529C13.7917 14.1524 13.792 14.1516 13.792 14.1498C13.792 13.7499 14.1161 13.4258 14.516 13.4258H17.9417V1.78918C17.9417 1.1963 17.4611 0.715673 16.8682 0.715673H3.13176ZM18.6574 13.4258V1.78918C18.6574 0.801045 17.8564 0 16.8682 0H3.13176C2.14363 0 1.34258 0.801044 1.34258 1.78918V13.4258H0.834952C0.373821 13.4258 0 13.7996 0 14.2607V14.6713C0 15.6594 0.801045 16.4605 1.78918 16.4605H18.2108C19.199 16.4605 20 15.6594 20 14.6713V14.2607C20 13.7996 19.6262 13.4258 19.165 13.4258H18.6574ZM4.00832 2.54646C3.94245 2.54646 3.88904 2.59987 3.88904 2.66574V11.4757C3.88904 11.5416 3.94245 11.595 4.00832 11.595H15.9917C16.0576 11.595 16.111 11.5416 16.111 11.4757V2.66574C16.111 2.59987 16.0576 2.54646 15.9917 2.54646H4.00832ZM3.17337 2.66574C3.17337 2.20461 3.54719 1.83079 4.00832 1.83079H15.9917C16.4528 1.83079 16.8266 2.20461 16.8266 2.66574V11.4757C16.8266 11.9369 16.4528 12.3107 15.9917 12.3107H4.00832C3.54719 12.3107 3.17337 11.9369 3.17337 11.4757V2.66574ZM0.834952 14.1415C0.769075 14.1415 0.715673 14.1949 0.715673 14.2607V14.6713C0.715673 15.2642 1.1963 15.7448 1.78918 15.7448H18.2108C18.8037 15.7448 19.2843 15.2642 19.2843 14.6713V14.2607C19.2843 14.1949 19.2309 14.1415 19.165 14.1415H14.516C14.5141 14.1415 14.5133 14.1418 14.5128 14.142C14.5121 14.1423 14.5111 14.1429 14.5101 14.1439C14.5091 14.1449 14.5084 14.1459 14.5081 14.1467C14.5079 14.1472 14.5076 14.148 14.5076 14.1498C14.5076 14.5496 14.1835 14.8738 13.7836 14.8738H6.21637C5.81652 14.8738 5.49237 14.5496 5.49237 14.1498C5.49237 14.148 5.49208 14.1472 5.49187 14.1467C5.49155 14.1459 5.49095 14.1449 5.48993 14.1439C5.48892 14.1429 5.48792 14.1423 5.48718 14.142C5.48668 14.1418 5.48586 14.1415 5.48405 14.1415H0.834952Z" fill="#05A43D"/>
</svg>
