<svg width="20" height="18" viewBox="0 0 20 18" fill="none" xmlns="http://www.w3.org/2000/svg">
<path fill-rule="evenodd" clip-rule="evenodd" d="M7.25347 0.722892C6.92077 0.722892 6.65106 0.9926 6.65106 1.3253V5.00463H13.3489V1.3253C13.3489 0.9926 13.0792 0.722892 12.7465 0.722892H7.25347ZM14.0718 5.00463H16.0513V3.7603C16.0513 3.4276 15.7815 3.15789 15.4488 3.15789H14.0718V5.00463ZM14.0718 2.435V1.3253C14.0718 0.593358 13.4785 0 12.7465 0H7.25347C6.52153 0 5.92817 0.593357 5.92817 1.3253V2.435H4.55116C3.81922 2.435 3.22586 3.02836 3.22586 3.7603V5.00463H1.3253C0.593357 5.00463 0 5.59799 0 6.32994V13.3181C0 14.05 0.593359 14.6434 1.3253 14.6434H5.92817V16.0438C5.92817 16.7758 6.52152 17.3691 7.25347 17.3691H12.7465C13.4785 17.3691 14.0718 16.7758 14.0718 16.0438V14.6434H18.6747C19.4066 14.6434 20 14.05 20 13.3181V6.32994C20 5.59799 19.4066 5.00463 18.6747 5.00463H16.7741V3.7603C16.7741 3.02836 16.1808 2.435 15.4488 2.435H14.0718ZM14.0718 13.9205H18.6747C19.0074 13.9205 19.2771 13.6508 19.2771 13.3181V6.32994C19.2771 5.99723 19.0074 5.72752 18.6747 5.72752H1.3253C0.9926 5.72752 0.722892 5.99723 0.722892 6.32994V13.3181C0.722892 13.6508 0.9926 13.9205 1.3253 13.9205H5.92817V11.8026H4.67668C4.47706 11.8026 4.31524 11.6407 4.31524 11.4411C4.31524 11.2415 4.47706 11.0797 4.67668 11.0797H15.3233C15.5229 11.0797 15.6848 11.2415 15.6848 11.4411C15.6848 11.6407 15.5229 11.8026 15.3233 11.8026H14.0718V13.9205ZM13.3489 11.8026H6.65106V16.0438C6.65106 16.3765 6.92077 16.6462 7.25347 16.6462H12.7465C13.0792 16.6462 13.3489 16.3765 13.3489 16.0438V11.8026ZM3.94875 5.00463H5.92817V3.15789H4.55116C4.21846 3.15789 3.94875 3.4276 3.94875 3.7603V5.00463ZM7.94433 13.5054C7.94433 13.3058 8.10615 13.144 8.30577 13.144H11.6942C11.8938 13.144 12.0557 13.3058 12.0557 13.5054C12.0557 13.705 11.8938 13.8669 11.6942 13.8669H8.30577C8.10615 13.8669 7.94433 13.705 7.94433 13.5054ZM7.94433 15.1288C7.94433 14.9291 8.10615 14.7673 8.30577 14.7673H11.6942C11.8938 14.7673 12.0557 14.9291 12.0557 15.1288C12.0557 15.3284 11.8938 15.4902 11.6942 15.4902H8.30577C8.10615 15.4902 7.94433 15.3284 7.94433 15.1288Z" fill="#2F7DC8"/>
<path d="M16.4875 7.12099C16.4875 7.37691 16.28 7.58438 16.0241 7.58438C15.7682 7.58438 15.5607 7.37691 15.5607 7.12099C15.5607 6.86507 15.7682 6.6576 16.0241 6.6576C16.28 6.6576 16.4875 6.86507 16.4875 7.12099Z" fill="#2F7DC8"/>
<path d="M18.3411 7.12099C18.3411 7.37691 18.1336 7.58438 17.8777 7.58438C17.6217 7.58438 17.4143 7.37691 17.4143 7.12099C17.4143 6.86507 17.6217 6.6576 17.8777 6.6576C18.1336 6.6576 18.3411 6.86507 18.3411 7.12099Z" fill="#2F7DC8"/>
</svg>
