<svg width="16" height="20" viewBox="0 0 16 20" fill="none" xmlns="http://www.w3.org/2000/svg">
<path fill-rule="evenodd" clip-rule="evenodd" d="M0 0.985867C0 0.441388 0.441388 0 0.985867 0C1.53035 0 1.97173 0.441388 1.97173 0.985867V1.2533C3.32074 1.20799 4.39737 1.27909 5.39962 1.56915C6.49491 1.88613 7.47319 2.45619 8.6108 3.36805C9.64252 4.07 10.5124 4.49674 11.4288 4.77425C12.3529 5.05409 13.3398 5.18708 14.6158 5.2854C15.1517 5.32669 15.3725 5.99651 14.9681 6.34894C14.9007 6.40771 14.8343 6.46578 14.7688 6.52307C13.9497 7.23961 13.2692 7.8349 12.3779 8.19132C11.4064 8.57979 10.2205 8.6749 8.3685 8.45839C8.30345 8.4562 8.23925 8.45402 8.17584 8.45186C6.83445 8.40628 5.85368 8.37295 4.91911 8.53936C3.99569 8.70379 3.10373 9.06733 1.97173 9.84982V19.0141C1.97173 19.5586 1.53034 20 0.985867 20C0.441388 20 0 19.5586 0 19.0141V0.985867ZM1.97173 8.98203C2.99031 8.33348 3.8685 7.99217 4.79239 7.82767C5.80471 7.64741 6.85887 7.68348 8.16542 7.72817C8.24526 7.7309 8.32603 7.73366 8.4078 7.73641L8.42288 7.73692L8.43787 7.73868C10.2485 7.95159 11.2981 7.84458 12.1095 7.5201C12.8711 7.21556 13.4547 6.71079 14.2867 5.98416C13.1182 5.88603 12.1476 5.74722 11.2193 5.46612C10.2153 5.16207 9.27627 4.69645 8.1921 3.95752L8.18042 3.94956L8.16939 3.9407C7.07115 3.05905 6.17475 2.54603 5.19866 2.26355C4.29458 2.0019 3.29803 1.93087 1.97173 1.97662V8.98203ZM0.985867 0.722892C0.84063 0.722892 0.722892 0.84063 0.722892 0.985867V19.0141C0.722892 19.1594 0.84063 19.2771 0.985867 19.2771C1.1311 19.2771 1.24884 19.1594 1.24884 19.0141V0.985867C1.24884 0.84063 1.1311 0.722892 0.985867 0.722892Z" fill="#D31D33"/>
</svg>
