<svg width="15" height="20" viewBox="0 0 15 20" fill="none" xmlns="http://www.w3.org/2000/svg">
<path fill-rule="evenodd" clip-rule="evenodd" d="M6.07252 0.672799C6.07252 0.301222 6.37374 -2.87251e-08 6.74532 0L8.47348 8.61754e-08C8.84506 8.61754e-08 9.14628 0.301223 9.14628 0.672799L9.14628 8.60855L11.3006 0.568642C11.3967 0.209726 11.7657 -0.00326924 12.1246 0.0929017L13.7938 0.540183C14.1528 0.636354 14.3658 1.00528 14.2696 1.36419L12.2729 8.81575H12.7819C13.1789 8.81575 13.4896 9.15782 13.4516 9.55305L12.504 19.3917C12.4708 19.7367 12.1809 20 11.8343 20H2.0822C1.73561 20 1.44573 19.7367 1.4125 19.3917L0.464932 9.55305C0.426867 9.15782 0.73757 8.81575 1.13463 8.81575H1.94539L0.023092 1.64162C-0.0730791 1.28271 0.139918 0.913786 0.498833 0.817615L3.30349 0.0661098C3.66241 -0.0300615 4.03133 0.182936 4.1275 0.541851L6.07252 7.80078L6.07252 0.672799ZM5.59609 8.81575L3.4422 0.777334L0.734317 1.50291L1.00356 2.50772L1.67627 2.32747C1.86909 2.2758 2.06728 2.39023 2.11895 2.58305C2.17061 2.77587 2.05619 2.97406 1.86337 3.02573L1.19065 3.20598L1.45989 4.2108L2.81383 3.84801C3.00665 3.79634 3.20485 3.91077 3.25651 4.10359C3.30818 4.29641 3.19375 4.4946 3.00093 4.54627L1.64699 4.90905L1.91623 5.91387L2.58894 5.73361C2.78176 5.68195 2.97996 5.79638 3.03162 5.9892C3.08329 6.18201 2.96886 6.38021 2.77604 6.43187L2.10333 6.61213L2.37257 7.61694L3.72651 7.25415C3.91933 7.20249 4.11752 7.31691 4.16919 7.50973C4.22085 7.70255 4.10643 7.90075 3.91361 7.95241L2.55966 8.3152L2.69379 8.81575H5.59609ZM6.79541 8.81575H8.42339L8.42339 4.24919H7.97085V5.76844C7.97085 5.96806 7.80902 6.12989 7.6094 6.12989C7.40978 6.12989 7.24795 5.96806 7.24795 5.76844V4.24919H6.79541V8.81575ZM6.79541 3.5263H7.24795V2.00705C7.24795 1.80743 7.40978 1.64561 7.6094 1.64561C7.80902 1.64561 7.97085 1.80743 7.97085 2.00705V3.5263H8.42339V0.722892L6.79541 0.722892L6.79541 3.5263ZM9.83915 8.81575H11.5246L12.6457 4.63162L11.0732 4.21027L9.83915 8.81575ZM11.2603 3.51201L12.8328 3.93336L13.5584 1.22548L11.9859 0.804126L11.2603 3.51201ZM1.18978 9.53864L2.1277 19.2771H11.7888L12.7267 9.53864H1.18978Z" fill="#D31D33"/>
</svg>
