<svg width="13" height="20" viewBox="0 0 13 20" fill="none" xmlns="http://www.w3.org/2000/svg">
<path d="M3.24265 14.4337C2.71033 14.4337 2.27879 14.8653 2.27879 15.3976V15.494C2.27879 16.0263 2.71033 16.4578 3.24265 16.4578H5.5331C6.06542 16.4578 6.49696 16.0263 6.49696 15.494V15.3976C6.49696 14.8653 6.06542 14.4337 5.5331 14.4337H3.24265Z" fill="#E77011"/>
<path fill-rule="evenodd" clip-rule="evenodd" d="M1.3253 0.722892C0.9926 0.722892 0.722892 0.9926 0.722892 1.3253V17.3253C0.722892 17.658 0.9926 17.9277 1.3253 17.9277H10.9017C11.2344 17.9277 11.5041 17.658 11.5041 17.3253V1.3253C11.5041 0.992599 11.2344 0.722892 10.9017 0.722892H1.3253ZM0 1.3253C0 0.593359 0.593357 0 1.3253 0H10.9017C11.6336 0 12.227 0.593358 12.227 1.3253V17.3253C12.227 18.0572 11.6336 18.6506 10.9017 18.6506H10.7916V18.6747C10.7916 19.4066 10.1982 20 9.46625 20H9.44303C9.01383 20 8.61121 19.7922 8.36263 19.4423L7.8002 18.6506H4.42677L3.86434 19.4423C3.61577 19.7922 3.21314 20 2.78394 20H2.76072C2.02878 20 1.43542 19.4066 1.43542 18.6747V18.6506H1.3253C0.593358 18.6506 0 18.0572 0 17.3253V1.3253ZM2.15831 18.6506V18.6747C2.15831 19.0074 2.42802 19.2771 2.76072 19.2771H2.78394C2.97903 19.2771 3.16204 19.1826 3.27503 19.0236L3.54002 18.6506H2.15831ZM8.68695 18.6506L8.95194 19.0236C9.06493 19.1826 9.24794 19.2771 9.44303 19.2771H9.46625C9.79895 19.2771 10.0687 19.0074 10.0687 18.6747V18.6506H8.68695ZM1.91735 3.25301C1.91735 2.52107 2.5107 1.92771 3.24265 1.92771H5.5331C6.26504 1.92771 6.8584 2.52107 6.8584 3.25301V11.5422C6.8584 12.2741 6.26504 12.8675 5.5331 12.8675H3.24265C2.5107 12.8675 1.91735 12.2741 1.91735 11.5422V3.25301ZM3.24265 2.6506C2.90995 2.6506 2.64024 2.92031 2.64024 3.25301V4.48193H6.13551V3.25301C6.13551 2.92031 5.8658 2.6506 5.5331 2.6506H3.24265ZM6.13551 5.20482H2.64024V7.03614H6.13551V5.20482ZM6.13551 7.75904H2.64024V9.59036H6.13551V7.75904ZM6.13551 10.3133H2.64024V11.5422C2.64024 11.8749 2.90995 12.1446 3.24265 12.1446H5.5331C5.8658 12.1446 6.13551 11.8749 6.13551 11.5422V10.3133ZM8.05286 3.05609C8.05286 2.43291 8.55805 1.92771 9.18124 1.92771C9.80443 1.92771 10.3096 2.43291 10.3096 3.05609V4.41378C10.3096 5.03697 9.80443 5.54217 9.18124 5.54217C8.55805 5.54217 8.05286 5.03697 8.05286 4.41378V3.05609ZM9.18124 2.6506C8.95729 2.6506 8.77575 2.83215 8.77575 3.05609V4.41378C8.77575 4.63773 8.95729 4.81928 9.18124 4.81928C9.40519 4.81928 9.58673 4.63773 9.58673 4.41378V3.05609C9.58673 2.83215 9.40519 2.6506 9.18124 2.6506ZM8.05286 7.39759C8.05286 7.19797 8.21468 7.03614 8.4143 7.03614H9.94818C10.1478 7.03614 10.3096 7.19797 10.3096 7.39759C10.3096 7.59721 10.1478 7.75904 9.94818 7.75904H8.4143C8.21468 7.75904 8.05286 7.59721 8.05286 7.39759ZM8.05286 10.3814C8.05286 9.75821 8.55805 9.25301 9.18124 9.25301C9.80443 9.25301 10.3096 9.75821 10.3096 10.3814V11.7391C10.3096 12.3623 9.80443 12.8675 9.18124 12.8675C8.55805 12.8675 8.05286 12.3623 8.05286 11.7391V10.3814ZM9.18124 9.9759C8.95729 9.9759 8.77575 10.1574 8.77575 10.3814V11.7391C8.77575 11.963 8.95729 12.1446 9.18124 12.1446C9.40519 12.1446 9.58673 11.963 9.58673 11.7391V10.3814C9.58673 10.1574 9.40519 9.9759 9.18124 9.9759ZM3.24265 14.7952C2.90995 14.7952 2.64024 15.0649 2.64024 15.3976V15.494C2.64024 15.8267 2.90995 16.0964 3.24265 16.0964H5.5331C5.8658 16.0964 6.13551 15.8267 6.13551 15.494V15.3976C6.13551 15.0649 5.8658 14.7952 5.5331 14.7952H3.24265ZM1.91735 15.3976C1.91735 14.6656 2.5107 14.0723 3.24265 14.0723H5.5331C6.26504 14.0723 6.8584 14.6656 6.8584 15.3976V15.494C6.8584 16.2259 6.26504 16.8193 5.5331 16.8193H3.24265C2.5107 16.8193 1.91735 16.2259 1.91735 15.494V15.3976Z" fill="#E77011"/>
</svg>
