<svg width="20" height="17" viewBox="0 0 20 17" fill="none" xmlns="http://www.w3.org/2000/svg">
<path fill-rule="evenodd" clip-rule="evenodd" d="M10 0.791249C8.81159 0.791249 7.84819 1.75465 7.84819 2.94306C7.84819 3.16156 7.67106 3.33868 7.45257 3.33868C7.23407 3.33868 7.05694 3.16156 7.05694 2.94306C7.05694 1.31765 8.37459 0 10 0C11.6254 0 12.9431 1.31765 12.9431 2.94306C12.9431 4.14767 12.2194 5.18238 11.1847 5.63783C10.703 5.84989 10.3956 6.20019 10.3956 6.54549V6.74496L19.6713 15.1959C20.337 15.7805 19.9241 16.88 19.0363 16.88H0.96365C0.0758858 16.88 -0.337031 15.7804 0.328721 15.1959L9.60437 6.74496V6.54549C9.60437 5.72548 10.2811 5.17107 10.8659 4.91364C11.6239 4.58 12.1518 3.82274 12.1518 2.94306C12.1518 1.75465 11.1884 0.791249 10 0.791249ZM10 7.45491L0.855236 15.7866L0.851785 15.7896C0.732814 15.8931 0.805986 16.0887 0.96365 16.0887H19.0363C19.194 16.0887 19.2672 15.8931 19.1482 15.7896L19.1448 15.7866L10 7.45491Z" fill="#05A43D"/>
</svg>
