<svg width="10" height="20" viewBox="0 0 10 20" fill="none" xmlns="http://www.w3.org/2000/svg">
<path fill-rule="evenodd" clip-rule="evenodd" d="M2.5433 5.34749C2.38018 5.55717 2.27305 5.90099 2.10446 6.51287L2.10378 6.51531L0.830771 11.0135H1.67675L2.95823 6.31994L3.67606 6.51205L1.61891 14.0466H2.81797C3.07807 14.0466 3.28892 14.2553 3.28892 14.5128V19.2568L4.62649 19.2623V14.4147H5.37009V19.2623L6.71558 19.2568V14.5128C6.71558 14.2553 6.92643 14.0466 7.18653 14.0466H8.33319L6.4038 6.50639L7.12463 6.3256L8.37438 11.2097H9.17853L7.97655 6.50961C7.80853 5.89984 7.70138 5.55686 7.53846 5.34758C7.41476 5.18868 7.23319 5.07771 6.76422 5.07771H3.31715C2.84824 5.07771 2.66687 5.18866 2.5433 5.34749ZM8.56275 11.9459H9.52882C9.83579 11.9459 10.0607 11.6598 9.98536 11.3652L8.69657 6.32565L8.69429 6.31716C8.53987 5.7566 8.39978 5.24802 8.12743 4.89817C7.81526 4.49717 7.37246 4.34151 6.76422 4.34151H3.31714C2.70892 4.34151 2.26623 4.49718 1.9542 4.89826C1.68226 5.2478 1.54228 5.75584 1.388 6.31577L1.38741 6.31789L0.0177421 11.1576C-0.0664032 11.4549 0.159336 11.7497 0.471223 11.7497H1.47575L0.808138 14.1948C0.727219 14.4912 0.952681 14.7828 1.26277 14.7828H2.54532V19.5256C2.54532 19.7824 2.75498 19.9908 3.01432 19.9919L4.99675 20H4.99983L6.99018 19.9919C7.24951 19.9908 7.45918 19.7824 7.45918 19.5256V14.7828H8.68352C8.99052 14.7828 9.21544 14.4966 9.14005 14.202L8.56275 11.9459Z" fill="#05A43D"/>
<path fill-rule="evenodd" clip-rule="evenodd" d="M5.09742 3.18848C5.7814 3.18848 6.33589 2.63952 6.33589 1.96234C6.33589 1.28516 5.7814 0.736196 5.09742 0.736196C4.41343 0.736196 3.85895 1.28516 3.85895 1.96234C3.85895 2.63952 4.41343 3.18848 5.09742 3.18848ZM5.09742 3.92467C6.19208 3.92467 7.07948 3.04611 7.07948 1.96234C7.07948 0.878568 6.19208 0 5.09742 0C4.00275 0 3.11535 0.878568 3.11535 1.96234C3.11535 3.04611 4.00275 3.92467 5.09742 3.92467Z" fill="#05A43D"/>
</svg>
